# xmcd CD database file
# Copyright (C) 1993-1996 Ti Kan
#
# Track frame offsets:
#	182
#	11485
#	21200
#	33692
#	43855
#	54972
#	68892
#	80587
#	91840
#	104745
#	118265
#	132587
#	144215
#	156720
#	167247
#	182822
#	195730
#	207237
#	219727
#	232770
#	243692
#
# Disc length: 3408 seconds
#
# Revision: 1
# Processed by: cddbd v1.4b41PL1 Copyright (c) Steve Scherf et al.
# Submitted via: CDValet v3.01 - Copyright (c) 1997 Greg Leichner
#
DISCID=3a0d4e15
DTITLE=Bo Diddley - Hey Bo Diddley (21 Track Collection)
DYEAR=1900
DGENRE=
TTITLE0=Bo Diddley
TTITLE1=Hey Bo Diddley
TTITLE2=I'm A Man
TTITLE3=Bring It To Jerome
TTITLE4=Diddley Daddy
TTITLE5=Before You Accuse Me
TTITLE6=Pretty Thing
TTITLE7=Who Do You Love
TTITLE8=Dearest Darling
TTITLE9=You Can't Judge A Book By It's Cover
TTITLE10=Say, Man
TTITLE11=I'm Looking For  A Woman
TTITLE12=Roadrunner
TTITLE13=Mona
TTITLE14=Cops and Robbers
TTITLE15=Story Of Bo Diddley
TTITLE16=Say Bossman
TTITLE17=Hush Your Mouth
TTITLE18=Nursery Rhyme
TTITLE19=I'm Sorry
TTITLE20=Live My Life
EXTD=
EXTT0=
EXTT1=
EXTT2=
EXTT3=
EXTT4=
EXTT5=
EXTT6=
EXTT7=
EXTT8=
EXTT9=
EXTT10=
EXTT11=
EXTT12=
EXTT13=
EXTT14=
EXTT15=
EXTT16=
EXTT17=
EXTT18=
EXTT19=
EXTT20=
PLAYORDER=
